<svg width="30" height="30" viewBox="0 0 30 30" fill="none" xmlns="http://www.w3.org/2000/svg">
    <path fill-rule="evenodd" clip-rule="evenodd" d="M2 15c0 7.18 5.82 13 13 13s13-5.82 13-13S22.18 2 15 2 2 7.82 2 15zM15 0C6.716 0 0 6.716 0 15c0 8.284 6.716 15 15 15 8.284 0 15-6.716 15-15 0-8.284-6.716-15-15-15z" fill="#fff"/>
    <path d="M17.38 9.99h1.37V7.607a17.68 17.68 0 0 0-1.995-.106c-4.332 0-3.153 4.906-3.326 5.625H11.25v2.666h2.179V22.5h2.67v-6.708h2.091l.332-2.666h-2.423c.117-1.765-.476-3.135 1.282-3.135z" fill="#fff"/>
</svg>
