<svg width="82" height="48" viewBox="0 0 82 48" fill="none" xmlns="http://www.w3.org/2000/svg">
    <g opacity=".8">
        <path fill-rule="evenodd" clip-rule="evenodd" d="M3.297 3.532C2.436 4.97 1.908 6.784 1.908 8.256c0 2.94 2.064 5.16 4.42 5.16s4.42-2.22 4.42-5.16c0-1.472-.528-3.286-1.389-4.724-.882-1.474-1.981-2.348-3.031-2.348s-2.149.874-3.031 2.348zm-1.043-.599C3.19 1.37 4.603 0 6.328 0c1.725 0 3.138 1.37 4.074 2.933.957 1.6 1.554 3.617 1.554 5.323 0 3.413-2.434 6.343-5.628 6.343S.699 11.67.699 8.256c0-1.706.597-3.724 1.555-5.323z" fill="#fff"/>
        <path fill-rule="evenodd" clip-rule="evenodd" d="M11.595 9.253s-3.458.548-4.423 0c-.286-.161-.58-.955-.907-.956-.328 0-.627.795-.914.956-.949.536-4.342 0-4.342 0a.408.408 0 0 1-.405-.41V6.074c0-.227.182-.41.405-.41h10.586c.224 0 .405.183.405.41v2.767a.408.408 0 0 1-.405.411z" fill="#3AD887"/>
        <path fill-rule="evenodd" clip-rule="evenodd" d="M1.209 6.256v2.429a19.002 19.002 0 0 0 .422.057c.325.04.767.09 1.236.122.471.033.956.048 1.37.025.416-.024.673-.081.79-.137a.91.91 0 0 0 .056-.068c.042-.056.08-.112.126-.18l.083-.122a2.61 2.61 0 0 1 .305-.377c.109-.107.338-.3.67-.3M1.208 6.256h10.187v2.429a14.685 14.685 0 0 1-.433.059c-.332.041-.783.091-1.26.125-.48.033-.975.048-1.399.025-.423-.024-.686-.083-.806-.14a.897.897 0 0 1-.055-.068c-.042-.056-.08-.112-.126-.18a14.84 14.84 0 0 0-.081-.121 2.604 2.604 0 0 0-.302-.378c-.108-.106-.336-.3-.667-.302m5.386 2.139c.548-.03.951-.486.951-1.001V6.075c0-.533-.43-1.003-1.009-1.003H1.01C.431 5.072 0 5.542 0 6.075v2.768c0 .515.403.971.952 1l.003.001a15.814 15.814 0 0 0 .522.072c.34.043.806.094 1.305.129.495.034 1.037.053 1.524.025.459-.025.976-.094 1.347-.304a1.38 1.38 0 0 0 .402-.378c.06-.08.126-.178.181-.259l.027-.039.024.037c.055.081.12.179.181.259.075.1.21.272.4.38.376.213.9.284 1.368.31.496.027 1.047.008 1.552-.027a24.229 24.229 0 0 0 1.86-.205h.005zM6.467 8.829l-.009.007a.04.04 0 0 1 .009-.007zm-.399.005a.046.046 0 0 1-.008-.006l.008.006zM7.64.48c.204.087.298.32.209.52l-.068.152.056.21c.033.03.07.065.104.107.059.073.15.22.12.415a.526.526 0 0 1-.167.305l-.055.145a.823.823 0 0 1 .3.331c.086.17.124.396.043.618.01.02.026.048.05.081a.873.873 0 0 0 .155.16l.001.001a.391.391 0 0 1 .203.508.406.406 0 0 1-.526.215.952.952 0 0 1-.267-.18 1.667 1.667 0 0 1-.22-.243 1.182 1.182 0 0 1-.174-.325.648.648 0 0 1 .016-.476.055.055 0 0 0-.007-.015.612.612 0 0 1-.274-.15.547.547 0 0 1-.165-.46.594.594 0 0 1 .014-.083l.002-.008.001-.004v-.002h.001l.388.105-.388-.106.005-.017.156-.408-.015-.008-.207-.78.179-.404A.406.406 0 0 1 7.64.48z" fill="#fff"/>
        <path d="M7.328 1.292s-.669.06-.434.477c.234.418-.321.602-.693.762" stroke="#fff" stroke-linecap="round"/>
    </g>
    <g opacity=".8" fill="#fff">
        <path d="M17.691 12.35a.95.95 0 0 0 .968.947c.547 0 .983-.41.983-.947V8.515c0-1.294.79-2.068 1.918-2.068 1.16 0 1.821.742 1.821 2.036v3.867c0 .537.435.947.983.947s.967-.41.967-.947V7.9c0-1.926-1.112-3.189-3.03-3.189-1.321 0-2.111.679-2.66 1.452V2.565c0-.521-.434-.947-.982-.947a.95.95 0 0 0-.968.947v9.785zM30.136 13.392c1.306 0 2.192-.537 2.773-1.215v.315c0 .426.386.805.95.805.532 0 .951-.394.951-.915V8.278c0-1.089-.29-1.973-.918-2.572-.597-.6-1.548-.932-2.82-.932-1.113 0-1.935.19-2.74.49a.835.835 0 0 0-.533.757c0 .442.37.79.822.79.097 0 .194-.016.306-.048a5.149 5.149 0 0 1 1.886-.331c1.37 0 2.112.63 2.112 1.815v.205a7.247 7.247 0 0 0-2.289-.347c-2.08 0-3.514.883-3.514 2.683v.031c0 1.673 1.419 2.573 3.014 2.573zm.548-1.389c-.934 0-1.66-.458-1.66-1.263v-.031c0-.868.742-1.39 1.999-1.39.774 0 1.434.143 1.934.332v.569c0 1.057-.983 1.783-2.273 1.783zM39.92 13.36c.516 0 .92-.079 1.338-.22.274-.111.516-.395.516-.742 0-.442-.387-.79-.822-.79-.064 0-.258.048-.484.048-.66 0-1.047-.3-1.047-1.042V6.526h1.53c.468 0 .855-.363.855-.82 0-.458-.387-.821-.854-.821H39.42v-1.42a.96.96 0 0 0-.967-.948c-.548 0-.983.426-.983.947v1.42h-.323a.824.824 0 0 0-.838.822c0 .457.37.82.838.82h.322v4.388c0 1.83 1.016 2.446 2.45 2.446zM47.39 13.408c1.42 0 2.338-.474 3.095-1.184a.738.738 0 0 0 .274-.6.837.837 0 0 0-.838-.836c-.225 0-.419.11-.532.205-.532.442-1.128.742-1.902.742-1.498 0-2.546-1.184-2.546-2.668v-.031c0-1.452 1.047-2.652 2.466-2.652.774 0 1.322.3 1.821.71.13.095.339.19.58.19.5 0 .903-.379.903-.868a.898.898 0 0 0-.306-.663c-.726-.616-1.644-1.042-2.982-1.042-2.563 0-4.432 1.989-4.432 4.356V9.1c0 2.367 1.87 4.309 4.4 4.309zM52.666 12.35a.95.95 0 0 0 .967.947c.548 0 .983-.41.983-.947V8.515c0-1.294.79-2.068 1.918-2.068 1.16 0 1.822.742 1.822 2.036v3.867c0 .537.435.947.983.947s.967-.41.967-.947V7.9c0-1.926-1.112-3.189-3.03-3.189-1.322 0-2.112.679-2.66 1.452V2.565c0-.521-.435-.947-.983-.947a.95.95 0 0 0-.967.947v9.785z"/>
    </g>
    <path d="M60.644 25.845c0-6.229 6.024-7.541 14.31-7.818 3.114-.104 5.054 3.242 3.474 5.873l-.37.617c-1.366 2.273-.597 5.132 1.063 7.2C80.94 33.984 82 36.876 82 40.838c0 7.103-7.402 7.247-19.92 7.144-3.032-.025-4.983-3.195-3.573-5.823l3.122-5.818c.942-1.755.653-3.868-.095-5.713-.563-1.389-.89-2.977-.89-4.784z" fill="#DD6814"/>
    <mask id="10bt5pw8ea" style="mask-type:alpha" maskUnits="userSpaceOnUse" x="58" y="18" width="24" height="30">
        <path d="M60.644 25.845c0-6.229 6.024-7.541 14.31-7.818 3.114-.104 5.054 3.242 3.474 5.873l-.91 1.514c-1.068 1.778-.491 4.011.933 5.531C80.68 33.324 82 36.413 82 40.84c0 7.103-7.402 7.247-19.92 7.144-3.032-.025-4.983-3.195-3.573-5.823l3.469-6.464c.733-1.367.526-3.003-.147-4.4-.742-1.54-1.185-3.347-1.185-5.451z" fill="#DD6814"/>
    </mask>
    <g filter="url(#od863fq38b)" mask="url(#10bt5pw8ea)">
        <path d="M60.644 25.845c0-6.229 6.024-7.541 14.31-7.818 3.114-.104 5.054 3.242 3.474 5.873l-.91 1.514c-.86 1.432-4.412 4.906-3.577 6.744 1.612 3.551 8.051 2.762 8.051 9.076-.798 6.749-7.63 6.85-19.913 6.749-3.03-.025-4.982-3.195-3.572-5.823 1.49-2.624 9.39-1.321 10.599-2.9 1.208-1.578-5.669-4.143-7.13-7.638a6.8 6.8 0 0 0-.147-.326c-.742-1.54-1.185-3.347-1.185-5.451z" fill="#DD6814"/>
    </g>
    <path d="M.604 43.889V22.006c0-2.239 1.805-4.053 4.03-4.053h9.932c3.417 0 5.283 4.007 3.096 6.647l-2.407 2.904a4.07 4.07 0 0 0 .012 5.203l7.169 8.574c2.204 2.636.34 6.66-3.084 6.66H4.634c-2.225 0-4.03-1.814-4.03-4.052z" fill="#187BEF"/>
    <mask id="g24x1punnc" style="mask-type:alpha" maskUnits="userSpaceOnUse" x="0" y="17" width="24" height="31">
        <path d="M.604 43.889V22.006c0-2.239 1.805-4.053 4.03-4.053h9.932c3.417 0 5.283 4.007 3.096 6.647l-2.407 2.904a4.07 4.07 0 0 0 .012 5.203l7.169 8.574c2.204 2.636.34 6.66-3.084 6.66H4.634c-2.225 0-4.03-1.814-4.03-4.052z" fill="#0063BF"/>
    </mask>
    <g filter="url(#3kjd8q58rd)" mask="url(#g24x1punnc)">
        <path d="M.605 43.889V22.006c0-2.239 1.804-4.053 4.03-4.053h9.932c3.416 0 5.283 4.007 3.096 6.647l-2.407 2.904C14.038 28.974 2.216 38.418.605 43.89c0 .926-.365 2.107-.254 1.188.042-.355.125-.75.254-1.188z" fill="#187BEF"/>
    </g>
    <path d="M23.976 22.006v21.883c0 2.238 1.804 4.052 4.03 4.052h2.417c2.225 0 4.03-1.814 4.03-4.052V22.006c0-2.239-1.805-4.053-4.03-4.053h-2.418c-2.225 0-4.03 1.814-4.03 4.053z" fill="#4FD9B8"/>
    <mask id="hse2hs7hve" style="mask-type:alpha" maskUnits="userSpaceOnUse" x="23" y="17" width="12" height="31">
        <path d="M23.976 22.006v21.883c0 2.238 1.804 4.052 4.03 4.052h2.417c2.225 0 4.03-1.814 4.03-4.052V22.006c0-2.239-1.805-4.053-4.03-4.053h-2.418c-2.225 0-4.03 1.814-4.03 4.053z" fill="#00EADC"/>
    </mask>
    <g filter="url(#8z79avuuwf)" mask="url(#hse2hs7hve)">
        <path fill-rule="evenodd" clip-rule="evenodd" d="M23.976 24.437v-2.431c0-2.239 1.804-4.053 4.03-4.053h2.417c2.225 0 4.03 1.814 4.03 4.053v2.431c0 2.238-1.805 4.052-4.03 4.052h-2.418c-2.225 0-4.03-1.814-4.03-4.052zm0 19.452V33.758c0-2.239 1.804-4.053 4.03-4.053h2.417c2.225 0 4.03 1.815 4.03 4.053v10.13c0 2.239-1.805 4.053-4.03 4.053h-2.418c-2.225 0-4.03-1.814-4.03-4.052z" fill="#4FD9B8"/>
    </g>
    <path d="M36.063 42.941V22.953a5 5 0 0 1 5-5h2.272c6.867 0 12.522 4.863 14.138 13.778 1.616 8.916-2.424 16.21-10.907 16.21h-5.505a4.998 4.998 0 0 1-4.998-5z" fill="#F8BA1C"/>
    <mask id="z5au2j5p4g" style="mask-type:alpha" maskUnits="userSpaceOnUse" x="36" y="17" width="22" height="31">
        <path d="M36.063 42.941V22.953a5 5 0 0 1 5-5h2.253c6.85 0 12.492 4.863 14.104 13.778 1.611 8.916-2.418 16.21-10.88 16.21h-5.479a4.998 4.998 0 0 1-4.998-5z" fill="#F0B41A"/>
    </mask>
    <g filter="url(#tlazehrgmh)" mask="url(#z5au2j5p4g)">
        <path d="M36.063 22.006v21.883c0 2.238 1.804 4.052 4.03 4.052h4.835V22.006c0-4.053 0-4.053-4.03-4.053h-.805c-2.226 0-4.03 1.814-4.03 4.053z" fill="#F8BA1C"/>
    </g>
    <defs>
        <filter id="od863fq38b" x="50.04" y="10.025" width="39.952" height="45.976" filterUnits="userSpaceOnUse" color-interpolation-filters="sRGB">
            <feFlood flood-opacity="0" result="BackgroundImageFix"/>
            <feColorMatrix in="SourceAlpha" values="0 0 0 0 0 0 0 0 0 0 0 0 0 0 0 0 0 0 127 0" result="hardAlpha"/>
            <feOffset/>
            <feGaussianBlur stdDeviation="4"/>
            <feColorMatrix values="0 0 0 0 0 0 0 0 0 0 0 0 0 0 0 0 0 0 0.4 0"/>
            <feBlend in2="BackgroundImageFix" result="effect1_dropShadow_1956_2730"/>
            <feBlend in="SourceGraphic" in2="effect1_dropShadow_1956_2730" result="shape"/>
        </filter>
        <filter id="3kjd8q58rd" x="-7.67" y="9.953" width="34.274" height="43.456" filterUnits="userSpaceOnUse" color-interpolation-filters="sRGB">
            <feFlood flood-opacity="0" result="BackgroundImageFix"/>
            <feColorMatrix in="SourceAlpha" values="0 0 0 0 0 0 0 0 0 0 0 0 0 0 0 0 0 0 127 0" result="hardAlpha"/>
            <feOffset/>
            <feGaussianBlur stdDeviation="4"/>
            <feColorMatrix values="0 0 0 0 0 0 0 0 0 0 0 0 0 0 0 0 0 0 0.4 0"/>
            <feBlend in2="BackgroundImageFix" result="effect1_dropShadow_1956_2730"/>
            <feBlend in="SourceGraphic" in2="effect1_dropShadow_1956_2730" result="shape"/>
        </filter>
        <filter id="8z79avuuwf" x="15.976" y="9.953" width="26.477" height="45.988" filterUnits="userSpaceOnUse" color-interpolation-filters="sRGB">
            <feFlood flood-opacity="0" result="BackgroundImageFix"/>
            <feColorMatrix in="SourceAlpha" values="0 0 0 0 0 0 0 0 0 0 0 0 0 0 0 0 0 0 127 0" result="hardAlpha"/>
            <feOffset/>
            <feGaussianBlur stdDeviation="4"/>
            <feColorMatrix values="0 0 0 0 0 0 0 0 0 0 0 0 0 0 0 0 0 0 0.4 0"/>
            <feBlend in2="BackgroundImageFix" result="effect1_dropShadow_1956_2730"/>
            <feBlend in="SourceGraphic" in2="effect1_dropShadow_1956_2730" result="shape"/>
        </filter>
        <filter id="tlazehrgmh" x="26.064" y="7.953" width="28.865" height="49.988" filterUnits="userSpaceOnUse" color-interpolation-filters="sRGB">
            <feFlood flood-opacity="0" result="BackgroundImageFix"/>
            <feColorMatrix in="SourceAlpha" values="0 0 0 0 0 0 0 0 0 0 0 0 0 0 0 0 0 0 127 0" result="hardAlpha"/>
            <feOffset/>
            <feGaussianBlur stdDeviation="5"/>
            <feColorMatrix values="0 0 0 0 0 0 0 0 0 0 0 0 0 0 0 0 0 0 0.4 0"/>
            <feBlend in2="BackgroundImageFix" result="effect1_dropShadow_1956_2730"/>
            <feBlend in="SourceGraphic" in2="effect1_dropShadow_1956_2730" result="shape"/>
        </filter>
    </defs>
</svg>
