<svg width="30" height="30" viewBox="0 0 30 30" fill="none" xmlns="http://www.w3.org/2000/svg">
    <path fill-rule="evenodd" clip-rule="evenodd" d="M2 15c0 7.18 5.82 13 13 13s13-5.82 13-13S22.18 2 15 2 2 7.82 2 15zM15 0C6.716 0 0 6.716 0 15c0 8.284 6.716 15 15 15 8.284 0 15-6.716 15-15 0-8.284-6.716-15-15-15z" fill="#fff"/>
    <path fill-rule="evenodd" clip-rule="evenodd" d="M22.459 11.91c-.035-.797-.164-1.345-.349-1.82a3.661 3.661 0 0 0-.867-1.33 3.692 3.692 0 0 0-1.327-.864c-.478-.185-1.023-.314-1.82-.35C17.293 7.51 17.038 7.5 15 7.5c-2.036 0-2.291.009-3.091.044-.797.035-1.345.164-1.82.349a3.66 3.66 0 0 0-1.33.867c-.38.375-.677.83-.864 1.327-.185.478-.314 1.023-.35 1.82-.037.803-.046 1.058-.046 3.095 0 2.036.009 2.29.044 3.09.035.798.164 1.346.349 1.82.19.505.486.956.867 1.33.375.382.83.678 1.327.865.478.185 1.023.314 1.82.349.8.035 1.055.044 3.092.044 2.036 0 2.291-.009 3.091-.044.797-.035 1.345-.164 1.82-.349a3.837 3.837 0 0 0 2.195-2.194c.184-.478.313-1.023.348-1.82.035-.8.044-1.055.044-3.091 0-2.037-.003-2.292-.038-3.092zm-7.46-.762a3.854 3.854 0 0 0 0 7.707 3.854 3.854 0 0 0 0-7.707zm0 6.353a2.5 2.5 0 1 1 .002-5 2.5 2.5 0 0 1-.001 5zm4.007-5.606a.9.9 0 1 0 0-1.799.9.9 0 0 0 0 1.8z" fill="#fff"/>
</svg>
