<svg width="14" height="17" viewBox="0 0 14 17" fill="none" xmlns="http://www.w3.org/2000/svg">
    <path fill-rule="evenodd" clip-rule="evenodd" d="M12.499 13.433c.291 0 .558-.15.708-.4a.822.822 0 0 0 .033-.808l-1.433-2.858a.714.714 0 0 1-.083-.342V6.8c0-2.492-1.834-4.567-4.225-4.958V.833A.83.83 0 0 0 6.665 0a.83.83 0 0 0-.833.833v1.009C3.44 2.233 1.607 4.308 1.607 6.8v2.225a.714.714 0 0 1-.083.342L.09 12.225a.822.822 0 0 0 .034.808c.15.25.416.4.708.4h11.667zm-5.834 3.334c1.275 0 2.35-.892 2.625-2.084H4.04a2.699 2.699 0 0 0 2.625 2.084z" fill="#fff"/>
</svg>
