<svg width="30" height="30" viewBox="0 0 30 30" fill="none" xmlns="http://www.w3.org/2000/svg">
    <path fill-rule="evenodd" clip-rule="evenodd" d="M2 15c0 7.18 5.82 13 13 13s13-5.82 13-13S22.18 2 15 2 2 7.82 2 15zM15 0C6.716 0 0 6.716 0 15c0 8.284 6.716 15 15 15 8.284 0 15-6.716 15-15 0-8.284-6.716-15-15-15z" fill="#fff"/>
    <path d="M22.5 10.443a6.41 6.41 0 0 1-1.772.485 3.057 3.057 0 0 0 1.353-1.7 6.145 6.145 0 0 1-1.95.745 3.074 3.074 0 0 0-5.32 2.103c0 .244.021.478.072.701a8.704 8.704 0 0 1-6.339-3.216 3.08 3.08 0 0 0 .945 4.11 3.038 3.038 0 0 1-1.389-.38v.035a3.09 3.09 0 0 0 2.464 3.021 3.07 3.07 0 0 1-.806.101c-.197 0-.396-.01-.583-.052a3.104 3.104 0 0 0 2.874 2.142 6.179 6.179 0 0 1-3.813 1.312c-.252 0-.494-.012-.736-.043a8.658 8.658 0 0 0 4.717 1.38c5.66 0 8.753-4.687 8.753-8.75 0-.136-.005-.267-.011-.398a6.133 6.133 0 0 0 1.541-1.596z" fill="#fff"/>
</svg>
