<svg width="30" height="30" viewBox="0 0 30 30" fill="none" xmlns="http://www.w3.org/2000/svg">
    <path fill-rule="evenodd" clip-rule="evenodd" d="M2 15c0 7.18 5.82 13 13 13s13-5.82 13-13S22.18 2 15 2 2 7.82 2 15zM15 0C6.716 0 0 6.716 0 15c0 8.284 6.716 15 15 15 8.284 0 15-6.716 15-15 0-8.284-6.716-15-15-15z" fill="#fff"/>
    <path d="M21.863 10.744c-.407-.724-.849-.857-1.748-.908-.898-.06-3.157-.086-5.113-.086-1.96 0-4.22.025-5.117.085-.897.052-1.34.184-1.75.909-.42.723-.635 1.968-.635 4.16v.007c0 2.182.216 3.437.635 4.152.41.724.852.855 1.75.916.897.053 3.157.084 5.117.084 1.956 0 4.215-.031 5.114-.083.899-.06 1.34-.192 1.747-.916.423-.715.637-1.97.637-4.152v-.008c0-2.192-.214-3.437-.637-4.16zm-8.738 6.975v-5.625l4.688 2.812-4.688 2.813z" fill="#fff"/>
</svg>
